<svg version="1.1" xmlns="http://www.w3.org/2000/svg" xmlns:xlink="http://www.w3.org/1999/xlink" width="48" height="48"><defs><linearGradient x1="13.27732" y1="13.27732" x2="58.39217" y2="58.39217" gradientUnits="userSpaceOnUse" id="color-1"><stop offset="0" stop-color="#000000" stop-opacity="0.28"></stop><stop offset="1" stop-color="#000000" stop-opacity="0"></stop></linearGradient><filter id="dropshadow-base"><feColorMatrix type="matrix" values="0 0 0 0 0  0 0 0 0 0  0 0 0 0 0  0 0 0 .8 0"></feColorMatrix> <feOffset dx="0" dy="1"></feOffset> <feGaussianBlur stdDeviation="1"></feGaussianBlur> <feComposite in="SourceGraphic"></feComposite></filter><filter id="dropshadow-banner" x="-10%" y="-10%" width="120%" height="130%"><feColorMatrix type="matrix" values="0 0 0 0 0  0 0 0 0 0  0 0 0 0 0  0 0 0 .4 0"></feColorMatrix> <feOffset dx="0" dy="1"></feOffset> <feGaussianBlur stdDeviation="0.5"></feGaussianBlur> <feComposite in="SourceGraphic"></feComposite></filter></defs><g fill="none" fill-rule="nonzero" stroke="none" stroke-width="none" stroke-linecap="butt" stroke-linejoin="miter" stroke-miterlimit="10" stroke-dasharray="" stroke-dashoffset="0" font-family="none" font-weight="none" font-size="none" text-anchor="none" style="mix-blend-mode: normal"><path d="M7,43c-1.10457,0 -2,-0.89543 -2,-2v-34c0,-1.10457 0.89543,-2 2,-2h34c1.10457,0 2,0.89543 2,2v34c0,1.10457 -0.89543,2 -2,2z" id="base 1 5 1" fill="#e53935" stroke-width="1"></path><path d="M13.90727,34.09273c-0.3887,-0.3887 -0.62996,-0.92483 -0.62996,-1.51458v-12.86722c0,-1.1795 0.96504,-2.14454 2.14454,-2.14454h3.39909l1.96225,-2.14454h6.43361l1.07227,1.07227v-0.35385c0.81854,0 1.57248,0.27499 2.17453,0.73769l-2.17453,-2.17453v-1.42612c1.7746,0 3.38301,0.7211 4.54776,1.88585l10.16317,10.16317v15.67366c0,1.10457 -0.89543,2 -2,2h-18.18545z" fill="url(#color-1)" stroke-width="1"></path><path d="M20.56874,26.14454c0,-1.89503 1.53623,-3.43126 3.43126,-3.43126c1.89503,0 3.43126,1.53623 3.43126,3.43126c0,1.89503 -1.53623,3.43126 -3.43126,3.43126c-1.89503,0 -3.43126,-1.53623 -3.43126,-3.43126zM28.28907,14.70343v-1.42612c3.54921,0 6.43361,2.8844 6.43361,6.43361h-1.42612c0,-2.76645 -2.24104,-5.00749 -5.00749,-5.00749zM28.28907,17.56639v-1.42612c1.97297,0 3.57065,1.59768 3.57065,3.57065h-1.42612c0,-1.19022 -0.95432,-2.14454 -2.14454,-2.14454zM34.72268,20.78319v11.79495c0,1.1795 -0.96504,2.14454 -2.14454,2.14454h-17.15629c-1.1795,0 -2.14454,-0.96504 -2.14454,-2.14454v-12.86722c0,-1.1795 0.96504,-2.14454 2.14454,-2.14454h3.39909l1.96225,-2.14454h6.43361v3.21681c1.19022,0 2.14454,0.95432 2.14454,2.14454zM29.36134,26.14454c0,-2.95946 -2.40188,-5.36134 -5.36134,-5.36134c-2.95946,0 -5.36134,2.40188 -5.36134,5.36134c0,2.95946 2.40188,5.36134 5.36134,5.36134c2.95946,0 5.36134,-2.40188 5.36134,-5.36134z" fill="none" stroke-width="0"></path><path d="M20.56874,26.14454c0,-1.89503 1.53623,-3.43126 3.43126,-3.43126c1.89503,0 3.43126,1.53623 3.43126,3.43126c0,1.89503 -1.53623,3.43126 -3.43126,3.43126c-1.89503,0 -3.43126,-1.53623 -3.43126,-3.43126zM28.28907,13.27732c3.54921,0 6.43361,2.8844 6.43361,6.43361h-1.42612c0,-2.76645 -2.24104,-5.00749 -5.00749,-5.00749zM28.28907,16.14027c1.97297,0 3.57065,1.59768 3.57065,3.57065h-1.42612c0,-1.19022 -0.95432,-2.14454 -2.14454,-2.14454zM34.72268,20.78319v11.79495c0,1.1795 -0.96504,2.14454 -2.14454,2.14454h-17.15629c-1.1795,0 -2.14454,-0.96504 -2.14454,-2.14454v-12.86722c0,-1.1795 0.96504,-2.14454 2.14454,-2.14454h3.39909l1.96225,-2.14454h6.43361v3.21681c1.19022,0 2.14454,0.95432 2.14454,2.14454zM29.36134,26.14454c0,-2.95946 -2.40188,-5.36134 -5.36134,-5.36134c-2.95946,0 -5.36134,2.40188 -5.36134,5.36134c0,2.95946 2.40188,5.36134 5.36134,5.36134c2.95946,0 5.36134,-2.40188 5.36134,-5.36134z" fill="#ffffff" stroke-width="0"></path><path d="M2,24c0,-12.15026 9.84974,-22 22,-22c12.15026,0 22,9.84974 22,22c0,12.15026 -9.84974,22 -22,22c-12.15026,0 -22,-9.84974 -22,-22z" id="base 1 1 1" fill="none" stroke-width="1"></path><g fill="#000000" stroke-width="1" font-family="Roboto, sans-serif" font-weight="normal" font-size="14" text-anchor="start"></g><rect x="2" y="2" width="44" height="22" fill="none" stroke-width="1"></rect><path d="M2,24v-22h44v22z" fill="none" stroke-width="1"></path><path d="M2,24v-22h44v22z" fill="none" stroke-width="1"></path><path d="M2,24v-22h44v22z" fill="none" stroke-width="1"></path><path d="M2,24v-22h44v22z" fill="none" stroke-width="1"></path></g></svg>